# Blender v2.90.1 OBJ File: 'untitled.blend'
# www.blender.org
mtllib skybox.mtl
o Cube
v 1.000000 1.000000 -1.000000
v 1.000000 -1.000000 -1.000000
v 1.000000 1.000000 1.000000
v 1.000000 -1.000000 1.000000
v -1.000000 1.000000 -1.000000
v -1.000000 -1.000000 -1.000000
v -1.000000 1.000000 1.000000
v -1.000000 -1.000000 1.000000
vt 0.000053 0.500000
vt 0.250018 0.000071
vt 0.250018 0.500000
vt 0.500018 0.999929
vt 0.250053 0.500000
vt 0.500018 0.500000
vt 0.249982 1.000000
vt 0.000017 0.500071
vt 0.249982 0.500071
vt 0.500018 0.000212
vt 0.250053 0.500142
vt 0.250053 0.000212
vt 0.750053 1.000000
vt 0.500088 0.500071
vt 0.750053 0.500071
vt 1.000018 1.000071
vt 1.000018 0.500141
vt 0.000053 0.000071
vt 0.250053 0.999929
vt 0.000018 1.000000
vt 0.500018 0.500141
vt 0.500088 1.000000
vt 0.750053 1.000071
vn 0.0000 1.0000 0.0000
vn 0.0000 0.0000 1.0000
vn -1.0000 0.0000 0.0000
vn 0.0000 -1.0000 0.0000
vn 1.0000 0.0000 0.0000
vn 0.0000 0.0000 -1.0000
usemtl Material
s off
f 5/1/1 3/2/1 1/3/1
f 3/4/2 8/5/2 4/6/2
f 7/7/3 6/8/3 8/9/3
f 2/10/4 8/11/4 6/12/4
f 1/13/5 4/14/5 2/15/5
f 5/16/6 2/15/6 6/17/6
f 5/1/1 7/18/1 3/2/1
f 3/4/2 7/19/2 8/5/2
f 7/7/3 5/20/3 6/8/3
f 2/10/4 4/21/4 8/11/4
f 1/13/5 3/22/5 4/14/5
f 5/16/6 1/23/6 2/15/6
